<svg xmlns="http://www.w3.org/2000/svg" viewBox="-598.5 971.5 50 50"><circle cx="-573.5" cy="996.5" r="25" fill="#2ca01c"/><path d="M-591.5,996.5c0,5.4,4.4,9.8,9.8,9.8h1.4v-3.6h-1.4c-3.4,0-6.2-2.8-6.2-6.2s2.8-6.2,6.2-6.2h3.4 c0,0,0,18.6,0,18.8c0,2,1.6,3.6,3.6,3.6v-26.2c0,0-3.8,0-7,0C-587.3,986.7-591.5,991.1-591.5,996.5z M-565.1,986.7h-1.4v3.6h1.4 c3.4,0,6.2,2.8,6.2,6.2s-2.8,6.2-6.2,6.2h-3.4c0,0,0-18.6,0-18.8c0-2-1.6-3.6-3.6-3.6v26.2c0,0,3.8,0,7,0c5.4,0,9.8-4.4,9.8-9.8 C-555.5,991.1-559.7,986.7-565.1,986.7z" fill="#fff"/></svg>